<svg xmlns="http://www.w3.org/2000/svg" xmlns:xlink="http://www.w3.org/1999/xlink" width="1200" zoomAndPan="magnify" viewBox="0 0 900 899.99999" height="1200" preserveAspectRatio="xMidYMid meet" version="1.0"><defs><clipPath id="49c8d48f0f"><path d="M 258.238281 173.085938 L 641.488281 173.085938 L 641.488281 726.585938 L 258.238281 726.585938 Z M 258.238281 173.085938 " clip-rule="nonzero"/></clipPath></defs><g clip-path="url(#49c8d48f0f)"><path fill="#000000" d="M 599.113281 258.289062 L 556.511719 258.289062 L 556.511719 215.6875 L 513.910156 215.6875 L 513.910156 173.085938 L 343.503906 173.085938 L 343.503906 215.6875 L 300.902344 215.6875 L 300.902344 258.289062 L 258.300781 258.289062 L 258.300781 343.492188 L 300.902344 343.492188 L 300.902344 386.09375 L 343.503906 386.09375 L 343.503906 513.894531 L 386.105469 513.894531 L 386.105469 556.496094 L 343.503906 556.496094 L 343.503906 641.699219 L 386.105469 641.699219 L 386.105469 684.300781 L 428.707031 684.300781 L 428.707031 726.902344 L 513.910156 726.902344 L 513.910156 684.300781 L 556.511719 684.300781 L 556.511719 599.097656 L 513.910156 599.097656 L 513.910156 556.496094 L 556.511719 556.496094 L 556.511719 513.894531 L 599.113281 513.894531 L 599.113281 471.296875 L 641.714844 471.296875 L 641.714844 300.890625 L 599.113281 300.890625 L 599.113281 258.289062 " fill-opacity="1" fill-rule="nonzero"/></g><path fill="#ff3dec" d="M 386.105469 556.496094 L 386.105469 641.699219 L 471.308594 641.699219 L 471.308594 556.496094 L 386.105469 556.496094 M 513.910156 258.289062 L 556.511719 258.289062 L 556.511719 428.691406 L 513.910156 428.691406 L 513.910156 471.296875 L 471.308594 471.296875 L 471.308594 513.894531 L 386.105469 513.894531 L 386.105469 428.691406 L 428.707031 428.691406 L 428.707031 386.09375 L 471.308594 386.09375 L 471.308594 300.890625 L 386.105469 300.890625 L 386.105469 343.492188 L 300.902344 343.492188 L 300.902344 258.289062 L 343.503906 258.289062 L 343.503906 215.6875 L 513.910156 215.6875 L 513.910156 258.289062 " fill-opacity="1" fill-rule="nonzero"/><path fill="#e2a9f1" d="M 300.902344 300.890625 L 343.503906 300.890625 L 343.503906 258.289062 L 300.902344 258.289062 Z M 300.902344 300.890625 " fill-opacity="1" fill-rule="nonzero"/><path fill="#e2a9f1" d="M 513.910156 258.289062 L 343.503906 258.289062 L 343.503906 215.6875 L 513.910156 215.6875 L 513.910156 258.289062 " fill-opacity="1" fill-rule="nonzero"/><path fill="#f6d923" d="M 386.105469 513.894531 L 428.707031 513.894531 L 428.707031 471.296875 L 386.105469 471.296875 Z M 386.105469 513.894531 " fill-opacity="1" fill-rule="nonzero"/><path fill="#f6d923" d="M 471.308594 641.699219 L 428.707031 641.699219 L 428.707031 599.097656 L 386.105469 599.097656 L 386.105469 641.699219 L 386.105469 556.496094 L 428.707031 556.496094 L 428.707031 599.097656 L 471.308594 599.097656 L 471.308594 641.699219 " fill-opacity="1" fill-rule="nonzero"/><path fill="#08ff80" d="M 386.105469 641.699219 L 428.707031 641.699219 L 428.707031 599.097656 L 386.105469 599.097656 Z M 386.105469 641.699219 " fill-opacity="1" fill-rule="nonzero"/></svg>