<svg xmlns="http://www.w3.org/2000/svg" viewBox="0 0 1254 1254" fill="none" aria-hidden="true">
  <path fill="#000000" d="
    M 392 571
    C 393 569, 398 568, 405 567
    L 503 559
    C 540 557, 590 556, 624 556
    C 628 556, 630 555, 631 553
    C 632 551, 629 549, 624 547
    L 557 510
    C 553 508, 551 504, 551 500
    L 551 495
    L 560 447
    C 561 443, 563 440, 568 440
    L 697 440
    C 702 440, 704 443, 706 451
    L 726 546
    C 728 551, 731 555, 736 556
    L 858 567
    C 867 568, 872 572, 873 578
    C 874 581, 873 585, 873 590
    L 861 690
    C 860 696, 856 700, 851 700
    L 785 693
    C 776 692, 771 693, 768 696
    C 765 699, 765 702, 766 706
    L 797 823
    C 799 831, 796 835, 790 835
    L 676 835
    C 670 835, 666 831, 664 825
    L 636 711
    C 635 707, 633 705, 631 705
    C 629 705, 628 708, 627 712
    L 601 824
    C 599 830, 596 833, 590 834
    L 474 835
    C 469 835, 466 832, 468 823
    L 499 702
    C 500 698, 498 695, 495 693
    C 492 691, 487 692, 481 693
    L 415 700
    C 409 700, 405 697, 404 691
    L 392 593
    C 391 584, 390 576, 392 571
    Z"/>
</svg>
