<svg xmlns="http://www.w3.org/2000/svg" viewBox="0 0 64 64">
  <rect width="64" height="64" rx="16" fill="#ffffff"/>
  <path
    d="M20 29.2c0-.7.6-1.1 1.7-1.2l8-.7c1.2-.1 2-.1 2.6-.1.4 0 .5-.2.2-.4l-5.5-3c-.5-.3-.7-.7-.6-1.2l.7-4c.1-.5.4-.7.9-.7h10.5c.5 0 .8.3.9.9l1.7 7.7c.1.5.4.8.8.8l9.9.8c.8.1 1.2.5 1.2 1.1l-1 9.4c-.1.6-.5.9-1 .8l-5.4-.5c-.9-.1-1.3.3-1.1 1l2.5 9c.2.7-.1 1.1-.8 1.1h-9.4c-.6 0-.9-.3-1.1-.9l-2.2-8.9c-.1-.4-.3-.6-.5-.6s-.4.2-.5.7l-2.1 8.7c-.1.6-.5.9-1 .9h-9.5c-.6 0-.8-.4-.6-1.1l2.5-9.3c.2-.7-.2-1-1-1l-5.4.5c-.6 0-1-.3-1.1-.9l-.9-8.9Z"
    fill="#111111"
  />
</svg>
